<svg width="150" height="146" viewBox="0 0 150 146" fill="none" xmlns="http://www.w3.org/2000/svg">
<g clip-path="url(#clip0_107_92)">
<path d="M68.6484 39.2334L53.7252 24.7694C52.8147 23.8868 51.3381 23.8868 50.4278 24.7694L35.5046 39.2334C35.0672 39.6571 34.8217 40.2321 34.8217 40.8315V69.76C34.8217 71.0083 35.8658 72.02 37.1534 72.02H47.1023C48.3902 72.02 49.4341 71.008 49.4341 69.76V55.1451H54.7195V69.76C54.7195 71.0083 55.7637 72.02 57.0513 72.02H67.0002C68.2881 72.02 69.3319 71.008 69.3319 69.76V40.8312C69.3313 40.2318 69.0858 39.6571 68.6484 39.2334Z" fill="black"/>
<path d="M35.5043 39.2334C35.0669 39.6571 34.8214 40.2321 34.8214 40.8315V69.76C34.8214 71.0083 35.8656 72.02 37.1531 72.02H42.4386V32.5125L35.5043 39.2334Z" fill="black"/>
<path d="M113.635 111.193C113.039 111.193 112.442 110.973 111.986 110.532L87.7359 87.0272C86.8254 86.1447 86.8254 84.7136 87.7359 83.8313C88.6465 82.9488 90.123 82.9488 91.0333 83.8313L115.284 107.336C116.72 108.727 115.674 111.193 113.635 111.193Z" fill="#7B7979"/>
<path d="M147.136 129.185L118.996 101.911C118.086 101.029 116.609 101.029 115.699 101.911L105.147 112.139C104.236 113.022 104.236 114.453 105.147 115.335L133.286 142.609C135.196 144.46 137.704 145.385 140.212 145.385C142.719 145.385 145.228 144.46 147.136 142.609C150.955 138.908 150.955 132.886 147.136 129.185Z" fill="#A7A6A6"/>
<path d="M107.469 109.888L105.147 112.139C104.236 113.021 104.236 114.452 105.147 115.335L133.287 142.609C135.196 144.459 137.704 145.384 140.212 145.384C141.333 145.384 142.453 145.198 143.52 144.829L107.469 109.888Z" fill="#918F90"/>
<path d="M52.0764 0C23.3613 0 0 22.6425 0 50.474C0 78.3055 23.3613 100.948 52.0764 100.948C80.7914 100.948 104.153 78.3055 104.153 50.474C104.153 22.6425 80.7914 0 52.0764 0ZM52.0764 84.3745C32.7902 84.3745 17.0997 69.167 17.0997 50.474C17.0997 31.781 32.7899 16.5736 52.0764 16.5736C71.3628 16.5736 87.053 31.781 87.053 50.474C87.053 69.167 71.3625 84.3745 52.0764 84.3745Z" fill="#6DDAE1"/>
<path d="M52.0764 9.49232C28.7614 9.49232 9.79367 27.8767 9.79367 50.4741C9.79367 73.0715 28.7614 91.4562 52.0764 91.4562C75.3915 91.4562 94.3594 73.0718 94.3594 50.4741C94.3594 27.8764 75.3915 9.49232 52.0764 9.49232ZM52.0764 84.3746C32.7903 84.3746 17.0997 69.1671 17.0997 50.4741C17.0997 31.7811 32.79 16.5736 52.0764 16.5736C71.3628 16.5736 87.0531 31.7811 87.0531 50.4741C87.0531 69.1671 71.3626 84.3746 52.0764 84.3746Z" fill="#4FC4D4"/>
</g>
<defs>
<clipPath id="clip0_107_92">
<rect width="150" height="145.385" fill="white"/>
</clipPath>
</defs>
</svg>
