<svg width="241" height="233" viewBox="0 0 241 233" fill="none" xmlns="http://www.w3.org/2000/svg">
<path d="M190.828 67.1545C215.488 97.0345 237.988 124.035 240.508 153.375C243.028 182.715 225.568 214.755 200.908 226.455C176.248 238.335 144.208 230.055 118.108 224.295C92.0084 218.355 71.6684 215.115 51.1484 203.415C30.6284 191.535 9.74838 171.195 2.72838 143.835C-4.29162 116.295 2.18839 81.9145 22.7084 51.8545C43.4084 21.9745 77.7884 -3.40549 108.568 0.374507C139.168 4.15451 166.168 37.0945 190.828 67.1545Z" fill="#FF0066"/>
<path d="M124.448 86.12H141.92L141.824 91.208C144.576 89.544 147.392 88.296 150.272 87.464C153.152 86.568 156 86.12 158.816 86.12C166.048 86.12 171.328 87.528 174.656 90.344C178.048 93.096 179.744 96.552 179.744 100.712C179.744 101.096 179.712 101.48 179.648 101.864C179.648 102.248 179.616 102.632 179.552 103.016C179.168 106.088 177.536 109.16 174.656 112.232C171.776 115.304 167.232 118.152 161.024 120.776C165.888 121.032 169.984 122.024 173.312 123.752C176.64 125.48 179.168 127.496 180.896 129.8C182.624 132.104 183.488 134.312 183.488 136.424C183.488 141.736 181.28 146.344 176.864 150.248C172.512 154.088 166.208 157.064 157.952 159.176C149.696 161.224 139.712 162.248 128 162.248L124.448 86.12ZM141.152 124.136C146.72 121.512 151.168 118.856 154.496 116.168C157.888 113.48 160.352 111.016 161.888 108.776C163.488 106.472 164.384 104.712 164.576 103.496C164.64 103.24 164.672 103.016 164.672 102.824C164.672 102.568 164.672 102.312 164.672 102.056C164.672 99.88 163.968 97.896 162.56 96.104C161.152 94.248 159.232 93.32 156.8 93.32C154.048 93.32 151.488 93.48 149.12 93.8C146.752 94.056 144.288 94.568 141.728 95.336L141.152 124.136ZM140.384 157.736C145.76 156.52 150.144 155.112 153.536 153.512C156.992 151.848 159.648 150.088 161.504 148.232C163.424 146.376 164.768 144.488 165.536 142.568C166.304 140.584 166.688 138.632 166.688 136.712C166.688 135.624 166.336 134.568 165.632 133.544C164.928 132.456 163.648 131.464 161.792 130.568C159.936 129.608 157.312 128.84 153.92 128.264C150.592 127.624 146.304 127.272 141.056 127.208L140.384 157.736Z" fill="black"/>
<path d="M59.6 163.3L56.8 84H75.3L72.5 147.3L108.4 152.7L108.3 154L59.6 163.3ZM127.495 162L124.795 95.5L103.995 98.2V83L165.895 88.7V90.1L143.195 93.1L140.495 162H127.495Z" fill="white"/>
<path d="M40.3773 79.0056L42.2141 87.8481C45.9958 106.053 95.0196 95.8697 91.2379 77.6645L89.4011 68.822L40.3773 79.0056Z" fill="#596066"/>
<path d="M102.669 59.5549L67.3042 85.2135L24.6466 75.7622L60.011 50.1036L102.669 59.5549Z" fill="#3E4347"/>
<path d="M63.3655 66.9054C57.9511 70.8787 46.163 79.4315 45.6968 79.7997C45.4638 79.9837 45.2577 80.2978 45.3388 80.6879L47.1756 89.5304C47.3917 90.5707 48.692 90.3006 48.476 89.2603L46.7742 81.068C52.0856 77.2517 63.5106 68.9099 63.9767 68.5418C64.6759 67.9896 64.0917 66.4832 63.3655 66.9054Z" fill="#FFCE31"/>
<path d="M48.447 92.3862C49.8116 92.1028 50.6275 90.4757 50.2695 88.7521C49.9114 87.0285 48.515 85.861 47.1505 86.1444C45.7859 86.4279 44.97 88.0549 45.3281 89.7786C45.6861 91.5022 47.0825 92.6697 48.447 92.3862Z" fill="#FFCE31"/>
<path d="M51.3103 106.17C52.6107 105.9 53.646 105.007 53.4569 104.096L50.2695 88.7521L45.3281 89.7786L48.5155 105.123C48.7046 106.033 50.01 106.44 51.3103 106.17Z" fill="#FFCE31"/>
<path d="M49.5703 89.3043C49.4402 89.3313 49.4672 89.4613 49.3372 89.4883L52.6867 105.613C52.8167 105.586 52.7897 105.456 52.9198 105.429L49.5703 89.3043Z" fill="#594640"/>
<path d="M48.611 89.9105L48.3509 89.9645L51.7004 106.089L51.9605 106.035L48.611 89.9105Z" fill="#594640"/>
<path d="M47.5707 90.1266L47.3106 90.1806L50.6601 106.305L50.9202 106.251L47.5707 90.1266Z" fill="#594640"/>
<path d="M46.4764 90.0826C46.3464 90.1096 46.3194 89.9796 46.1893 90.0066L49.5658 106.261C49.6959 106.234 49.7229 106.364 49.8529 106.337L46.4764 90.0826Z" fill="#594640"/>
<path d="M58.856 181.208L58.408 168.52H61.368L60.92 178.648L66.664 179.512L66.648 179.72L58.856 181.208ZM76.2606 181.208C74.618 181.208 73.2473 181.133 72.1486 180.984C71.05 180.835 70.1806 180.589 69.5406 180.248C68.9006 179.907 68.442 179.459 68.1646 178.904C67.8873 178.349 67.7486 177.672 67.7486 176.872C67.7486 175.837 67.9406 174.947 68.3246 174.2C68.7086 173.453 69.21 172.883 69.8286 172.488C70.458 172.083 71.1193 171.88 71.8126 171.88C72.3673 171.88 72.9273 171.965 73.4926 172.136C74.058 172.307 74.586 172.584 75.0766 172.968C75.5673 173.352 75.9673 173.859 76.2766 174.488C76.586 175.107 76.762 175.869 76.8046 176.776L70.0046 177.544C70.1006 178.131 70.3673 178.632 70.8046 179.048C71.2526 179.453 71.9246 179.811 72.8206 180.12C73.7166 180.429 74.8846 180.728 76.3246 181.016L76.2606 181.208ZM74.1326 175.464C74.0793 175.048 73.9566 174.653 73.7646 174.28C73.5726 173.907 73.3273 173.608 73.0286 173.384C72.73 173.149 72.3993 173.032 72.0366 173.032C71.61 173.032 71.242 173.133 70.9326 173.336C70.6233 173.539 70.3833 173.928 70.2126 174.504C70.042 175.069 69.9566 175.901 69.9566 177C69.9566 177.053 69.9566 177.107 69.9566 177.16C69.9566 177.203 69.962 177.251 69.9726 177.304L74.1326 175.464ZM87.0294 179.72C86.5387 180.179 86.1067 180.541 85.7334 180.808C85.36 181.075 85.024 181.208 84.7254 181.208C84.4907 181.208 84.2774 181.117 84.0854 180.936C83.904 180.744 83.7334 180.44 83.5734 180.024C83.2427 180.312 82.8374 180.557 82.3574 180.76C81.8774 180.952 81.36 181.08 80.8054 181.144C80.6347 181.165 80.4694 181.181 80.3094 181.192C80.1494 181.203 79.9947 181.208 79.8454 181.208C78.3414 181.208 77.5894 180.669 77.5894 179.592C77.5894 179.464 77.6 179.331 77.6214 179.192C77.6427 179.053 77.6747 178.904 77.7174 178.744C77.8134 178.392 78.0054 178.077 78.2934 177.8C78.592 177.512 78.9494 177.256 79.3654 177.032C79.7814 176.797 80.208 176.584 80.6454 176.392C81.0827 176.189 81.488 176.003 81.8614 175.832C82.2454 175.651 82.5547 175.475 82.7894 175.304C83.0347 175.133 83.1574 174.963 83.1574 174.792C83.1574 174.323 83.0987 174.008 82.9814 173.848C82.864 173.677 82.64 173.592 82.3094 173.592C82.0747 173.592 81.712 173.613 81.2214 173.656C80.7307 173.699 80.192 173.763 79.6054 173.848C79.0187 173.933 78.4587 174.045 77.9254 174.184L77.8454 174.024C78.1334 173.747 78.5014 173.48 78.9494 173.224C79.408 172.968 79.8934 172.739 80.4054 172.536C80.928 172.333 81.4454 172.173 81.9574 172.056C82.4694 171.939 82.9334 171.88 83.3494 171.88C84.0107 171.88 84.5014 171.949 84.8214 172.088C85.152 172.216 85.3707 172.477 85.4774 172.872C85.5947 173.256 85.6534 173.837 85.6534 174.616V178.664C85.6534 179.048 85.6854 179.325 85.7494 179.496C85.824 179.656 85.9894 179.736 86.2454 179.736C86.3307 179.736 86.432 179.725 86.5494 179.704C86.6774 179.683 86.816 179.656 86.9654 179.624L87.0294 179.72ZM83.2854 176.184C83.0507 176.387 82.736 176.605 82.3414 176.84C81.9574 177.064 81.584 177.309 81.2214 177.576C80.8587 177.832 80.592 178.12 80.4214 178.44C80.272 178.739 80.1974 179 80.1974 179.224C80.1974 179.437 80.2614 179.613 80.3894 179.752C80.528 179.891 80.72 179.96 80.9654 179.96C81.0187 179.96 81.072 179.96 81.1254 179.96C81.1894 179.949 81.248 179.939 81.3014 179.928C81.5147 179.875 81.76 179.8 82.0374 179.704C82.3254 179.608 82.592 179.496 82.8374 179.368C83.0934 179.24 83.2747 179.112 83.3814 178.984L83.2854 176.184ZM88.5859 181L88.0099 172.088H90.8259L90.7779 173.672C91.0232 173.352 91.3219 173.059 91.6739 172.792C92.0259 172.515 92.4045 172.296 92.8099 172.136C93.2259 171.965 93.6419 171.88 94.0579 171.88V174.232C93.8445 174.115 93.6045 174.029 93.3379 173.976C93.0819 173.912 92.8152 173.88 92.5379 173.88C92.2072 173.88 91.8819 173.923 91.5619 174.008C91.2419 174.083 90.9752 174.195 90.7619 174.344L90.5539 181H88.5859ZM101.453 181L101.197 175.512C101.165 174.808 101.069 174.344 100.909 174.12C100.76 173.885 100.52 173.768 100.189 173.768C99.933 173.768 99.5757 173.837 99.117 173.976C98.6583 174.104 98.2103 174.307 97.773 174.584L97.469 181H95.501L95.085 172.088H97.885L97.805 173.784C98.1357 173.411 98.5143 173.08 98.941 172.792C99.3783 172.504 99.8317 172.28 100.301 172.12C100.77 171.96 101.218 171.88 101.645 171.88C102.445 171.88 102.989 172.099 103.277 172.536C103.565 172.963 103.709 173.587 103.709 174.408C103.709 174.483 103.704 174.557 103.693 174.632C103.693 174.696 103.693 174.771 103.693 174.856L103.437 181H101.453ZM114.422 181L113.99 170.36L110.662 170.792V168.36L120.566 169.272V169.496L116.934 169.976L116.502 181H114.422ZM127.859 181L127.603 175.512C127.571 174.808 127.475 174.344 127.315 174.12C127.166 173.885 126.926 173.768 126.595 173.768C126.329 173.768 125.955 173.843 125.475 173.992C124.995 174.131 124.531 174.344 124.083 174.632L123.875 181H121.907L121.491 168.52H124.291L124.115 173.896C124.446 173.501 124.83 173.155 125.267 172.856C125.705 172.547 126.163 172.307 126.643 172.136C127.134 171.965 127.603 171.88 128.051 171.88C128.851 171.88 129.395 172.099 129.683 172.536C129.971 172.963 130.115 173.587 130.115 174.408C130.115 174.483 130.11 174.557 130.099 174.632C130.099 174.696 130.099 174.771 130.099 174.856L129.843 181H127.859ZM140.417 181.208C138.774 181.208 137.404 181.133 136.305 180.984C135.206 180.835 134.337 180.589 133.697 180.248C133.057 179.907 132.598 179.459 132.321 178.904C132.044 178.349 131.905 177.672 131.905 176.872C131.905 175.837 132.097 174.947 132.481 174.2C132.865 173.453 133.366 172.883 133.985 172.488C134.614 172.083 135.276 171.88 135.969 171.88C136.524 171.88 137.084 171.965 137.649 172.136C138.214 172.307 138.742 172.584 139.233 172.968C139.724 173.352 140.124 173.859 140.433 174.488C140.742 175.107 140.918 175.869 140.961 176.776L134.161 177.544C134.257 178.131 134.524 178.632 134.961 179.048C135.409 179.453 136.081 179.811 136.977 180.12C137.873 180.429 139.041 180.728 140.481 181.016L140.417 181.208ZM138.289 175.464C138.236 175.048 138.113 174.653 137.921 174.28C137.729 173.907 137.484 173.608 137.185 173.384C136.886 173.149 136.556 173.032 136.193 173.032C135.766 173.032 135.398 173.133 135.089 173.336C134.78 173.539 134.54 173.928 134.369 174.504C134.198 175.069 134.113 175.901 134.113 177C134.113 177.053 134.113 177.107 134.113 177.16C134.113 177.203 134.118 177.251 134.129 177.304L138.289 175.464ZM148.189 168.52H151.101L151.085 169.368C151.544 169.091 152.013 168.883 152.493 168.744C152.973 168.595 153.448 168.52 153.917 168.52C155.123 168.52 156.003 168.755 156.557 169.224C157.123 169.683 157.405 170.259 157.405 170.952C157.405 171.016 157.4 171.08 157.389 171.144C157.389 171.208 157.384 171.272 157.373 171.336C157.309 171.848 157.037 172.36 156.557 172.872C156.077 173.384 155.32 173.859 154.285 174.296C155.096 174.339 155.779 174.504 156.333 174.792C156.888 175.08 157.309 175.416 157.597 175.8C157.885 176.184 158.029 176.552 158.029 176.904C158.029 177.789 157.661 178.557 156.925 179.208C156.2 179.848 155.149 180.344 153.773 180.696C152.397 181.037 150.733 181.208 148.781 181.208L148.189 168.52ZM150.973 174.856C151.901 174.419 152.643 173.976 153.197 173.528C153.763 173.08 154.173 172.669 154.429 172.296C154.696 171.912 154.845 171.619 154.877 171.416C154.888 171.373 154.893 171.336 154.893 171.304C154.893 171.261 154.893 171.219 154.893 171.176C154.893 170.813 154.776 170.483 154.541 170.184C154.307 169.875 153.987 169.72 153.581 169.72C153.123 169.72 152.696 169.747 152.301 169.8C151.907 169.843 151.496 169.928 151.069 170.056L150.973 174.856ZM150.845 180.456C151.741 180.253 152.472 180.019 153.037 179.752C153.613 179.475 154.056 179.181 154.365 178.872C154.685 178.563 154.909 178.248 155.037 177.928C155.165 177.597 155.229 177.272 155.229 176.952C155.229 176.771 155.171 176.595 155.053 176.424C154.936 176.243 154.723 176.077 154.413 175.928C154.104 175.768 153.667 175.64 153.101 175.544C152.547 175.437 151.832 175.379 150.957 175.368L150.845 180.456ZM167.683 181.208C166.04 181.208 164.669 181.133 163.571 180.984C162.472 180.835 161.603 180.589 160.963 180.248C160.323 179.907 159.864 179.459 159.587 178.904C159.309 178.349 159.171 177.672 159.171 176.872C159.171 175.837 159.363 174.947 159.747 174.2C160.131 173.453 160.632 172.883 161.251 172.488C161.88 172.083 162.541 171.88 163.235 171.88C163.789 171.88 164.349 171.965 164.915 172.136C165.48 172.307 166.008 172.584 166.499 172.968C166.989 173.352 167.389 173.859 167.699 174.488C168.008 175.107 168.184 175.869 168.227 176.776L161.427 177.544C161.523 178.131 161.789 178.632 162.227 179.048C162.675 179.453 163.347 179.811 164.243 180.12C165.139 180.429 166.307 180.728 167.747 181.016L167.683 181.208ZM165.555 175.464C165.501 175.048 165.379 174.653 165.187 174.28C164.995 173.907 164.749 173.608 164.451 173.384C164.152 173.149 163.821 173.032 163.459 173.032C163.032 173.032 162.664 173.133 162.355 173.336C162.045 173.539 161.805 173.928 161.635 174.504C161.464 175.069 161.379 175.901 161.379 177C161.379 177.053 161.379 177.107 161.379 177.16C161.379 177.203 161.384 177.251 161.395 177.304L165.555 175.464ZM175.891 175.096C175.614 174.819 175.262 174.541 174.835 174.264C174.409 173.987 173.971 173.747 173.523 173.544C173.086 173.331 172.702 173.197 172.371 173.144C172.297 173.123 172.222 173.112 172.147 173.112C172.073 173.112 171.998 173.112 171.923 173.112C171.593 173.112 171.321 173.171 171.107 173.288C170.894 173.405 170.787 173.555 170.787 173.736C170.787 173.907 170.894 174.077 171.107 174.248C171.321 174.408 171.641 174.595 172.067 174.808C172.505 175.021 172.985 175.261 173.507 175.528C174.03 175.784 174.547 176.067 175.059 176.376C175.571 176.685 176.019 177.011 176.403 177.352C176.787 177.693 177.043 178.056 177.171 178.44C177.267 178.707 177.315 178.957 177.315 179.192C177.315 179.811 177.001 180.301 176.371 180.664C175.742 181.016 174.809 181.192 173.571 181.192C172.601 181.192 171.699 180.925 170.867 180.392C170.035 179.859 169.347 179.171 168.803 178.328L168.931 178.168C169.593 178.68 170.297 179.085 171.043 179.384C171.79 179.672 172.521 179.816 173.235 179.816C173.715 179.816 174.089 179.752 174.355 179.624C174.633 179.496 174.771 179.336 174.771 179.144C174.771 179.101 174.761 179.048 174.739 178.984C174.633 178.685 174.377 178.397 173.971 178.12C173.566 177.832 173.086 177.533 172.531 177.224C171.987 176.904 171.427 176.552 170.851 176.168C170.286 175.773 169.779 175.325 169.331 174.824C169.086 174.525 168.963 174.221 168.963 173.912C168.963 173.571 169.086 173.245 169.331 172.936C169.577 172.627 169.923 172.376 170.371 172.184C170.819 171.981 171.342 171.88 171.939 171.88C172.665 171.88 173.353 171.939 174.003 172.056C174.654 172.173 175.235 172.328 175.747 172.52C176.27 172.701 176.681 172.904 176.979 173.128L175.891 175.096ZM184.07 179.32C183.526 179.971 183.019 180.451 182.55 180.76C182.091 181.059 181.675 181.208 181.302 181.208C180.832 181.208 180.459 180.963 180.182 180.472C179.904 179.971 179.75 179.251 179.718 178.312L179.574 173.928H177.862V173.752L181.894 169.304H182.102L181.958 172.376L183.766 171.768V173.928H181.878L181.686 177.96C181.686 178.035 181.68 178.109 181.67 178.184C181.67 178.248 181.67 178.317 181.67 178.392C181.67 178.84 181.723 179.171 181.83 179.384C181.936 179.587 182.123 179.688 182.39 179.688C182.742 179.688 183.275 179.512 183.99 179.16L184.07 179.32Z" fill="white"/>
</svg>
